# NPC_Pasif Model
mtllib NPC_Pasif_Smooth.mtl
o NPC_Pasif
v 0.0000 2.6200 0.0000
v 0.0000 2.6200 0.0000
v 0.0000 2.6200 0.0000
v 0.0000 2.6200 0.0000
v 0.0000 2.6200 0.0000
v 0.0000 2.6200 0.0000
v 0.0000 2.6200 0.0000
v 0.0000 2.6200 0.0000
v 0.0000 2.6200 0.0000
v 0.0000 2.6200 0.0000
v 0.0000 2.6200 0.0000
v 0.0000 2.6200 0.0000
v 0.0000 2.6200 0.0000
v 0.0000 2.6200 0.0000
v 0.0000 2.6200 0.0000
v 0.0000 2.6200 0.0000
v 0.0624 2.6139 0.0000
v 0.0577 2.6139 0.0239
v 0.0441 2.6139 0.0441
v 0.0239 2.6139 0.0577
v 0.0000 2.6139 0.0624
v -0.0239 2.6139 0.0577
v -0.0441 2.6139 0.0441
v -0.0577 2.6139 0.0239
v -0.0624 2.6139 0.0000
v -0.0577 2.6139 -0.0239
v -0.0441 2.6139 -0.0441
v -0.0239 2.6139 -0.0577
v -0.0000 2.6139 -0.0624
v 0.0239 2.6139 -0.0577
v 0.0441 2.6139 -0.0441
v 0.0577 2.6139 -0.0239
v 0.1225 2.5956 0.0000
v 0.1131 2.5956 0.0469
v 0.0866 2.5956 0.0866
v 0.0469 2.5956 0.1131
v 0.0000 2.5956 0.1225
v -0.0469 2.5956 0.1131
v -0.0866 2.5956 0.0866
v -0.1131 2.5956 0.0469
v -0.1225 2.5956 0.0000
v -0.1131 2.5956 -0.0469
v -0.0866 2.5956 -0.0866
v -0.0469 2.5956 -0.1131
v -0.0000 2.5956 -0.1225
v 0.0469 2.5956 -0.1131
v 0.0866 2.5956 -0.0866
v 0.1131 2.5956 -0.0469
v 0.1778 2.5661 0.0000
v 0.1642 2.5661 0.0680
v 0.1257 2.5661 0.1257
v 0.0680 2.5661 0.1642
v 0.0000 2.5661 0.1778
v -0.0680 2.5661 0.1642
v -0.1257 2.5661 0.1257
v -0.1642 2.5661 0.0680
v -0.1778 2.5661 0.0000
v -0.1642 2.5661 -0.0680
v -0.1257 2.5661 -0.1257
v -0.0680 2.5661 -0.1642
v -0.0000 2.5661 -0.1778
v 0.0680 2.5661 -0.1642
v 0.1257 2.5661 -0.1257
v 0.1642 2.5661 -0.0680
v 0.2263 2.5263 0.0000
v 0.2091 2.5263 0.0866
v 0.1600 2.5263 0.1600
v 0.0866 2.5263 0.2091
v 0.0000 2.5263 0.2263
v -0.0866 2.5263 0.2091
v -0.1600 2.5263 0.1600
v -0.2091 2.5263 0.0866
v -0.2263 2.5263 0.0000
v -0.2091 2.5263 -0.0866
v -0.1600 2.5263 -0.1600
v -0.0866 2.5263 -0.2091
v -0.0000 2.5263 -0.2263
v 0.0866 2.5263 -0.2091
v 0.1600 2.5263 -0.1600
v 0.2091 2.5263 -0.0866
v 0.2661 2.4778 0.0000
v 0.2458 2.4778 0.1018
v 0.1881 2.4778 0.1881
v 0.1018 2.4778 0.2458
v 0.0000 2.4778 0.2661
v -0.1018 2.4778 0.2458
v -0.1881 2.4778 0.1881
v -0.2458 2.4778 0.1018
v -0.2661 2.4778 0.0000
v -0.2458 2.4778 -0.1018
v -0.1881 2.4778 -0.1881
v -0.1018 2.4778 -0.2458
v -0.0000 2.4778 -0.2661
v 0.1018 2.4778 -0.2458
v 0.1881 2.4778 -0.1881
v 0.2458 2.4778 -0.1018
v 0.2956 2.4225 0.0000
v 0.2731 2.4225 0.1131
v 0.2091 2.4225 0.2091
v 0.1131 2.4225 0.2731
v 0.0000 2.4225 0.2956
v -0.1131 2.4225 0.2731
v -0.2091 2.4225 0.2091
v -0.2731 2.4225 0.1131
v -0.2956 2.4225 0.0000
v -0.2731 2.4225 -0.1131
v -0.2091 2.4225 -0.2091
v -0.1131 2.4225 -0.2731
v -0.0000 2.4225 -0.2956
v 0.1131 2.4225 -0.2731
v 0.2091 2.4225 -0.2091
v 0.2731 2.4225 -0.1131
v 0.3139 2.3624 0.0000
v 0.2900 2.3624 0.1201
v 0.2219 2.3624 0.2219
v 0.1201 2.3624 0.2900
v 0.0000 2.3624 0.3139
v -0.1201 2.3624 0.2900
v -0.2219 2.3624 0.2219
v -0.2900 2.3624 0.1201
v -0.3139 2.3624 0.0000
v -0.2900 2.3624 -0.1201
v -0.2219 2.3624 -0.2219
v -0.1201 2.3624 -0.2900
v -0.0000 2.3624 -0.3139
v 0.1201 2.3624 -0.2900
v 0.2219 2.3624 -0.2219
v 0.2900 2.3624 -0.1201
v 0.3200 2.3000 0.0000
v 0.2956 2.3000 0.1225
v 0.2263 2.3000 0.2263
v 0.1225 2.3000 0.2956
v 0.0000 2.3000 0.3200
v -0.1225 2.3000 0.2956
v -0.2263 2.3000 0.2263
v -0.2956 2.3000 0.1225
v -0.3200 2.3000 0.0000
v -0.2956 2.3000 -0.1225
v -0.2263 2.3000 -0.2263
v -0.1225 2.3000 -0.2956
v -0.0000 2.3000 -0.3200
v 0.1225 2.3000 -0.2956
v 0.2263 2.3000 -0.2263
v 0.2956 2.3000 -0.1225
v 0.3139 2.2376 0.0000
v 0.2900 2.2376 0.1201
v 0.2219 2.2376 0.2219
v 0.1201 2.2376 0.2900
v 0.0000 2.2376 0.3139
v -0.1201 2.2376 0.2900
v -0.2219 2.2376 0.2219
v -0.2900 2.2376 0.1201
v -0.3139 2.2376 0.0000
v -0.2900 2.2376 -0.1201
v -0.2219 2.2376 -0.2219
v -0.1201 2.2376 -0.2900
v -0.0000 2.2376 -0.3139
v 0.1201 2.2376 -0.2900
v 0.2219 2.2376 -0.2219
v 0.2900 2.2376 -0.1201
v 0.2956 2.1775 0.0000
v 0.2731 2.1775 0.1131
v 0.2091 2.1775 0.2091
v 0.1131 2.1775 0.2731
v 0.0000 2.1775 0.2956
v -0.1131 2.1775 0.2731
v -0.2091 2.1775 0.2091
v -0.2731 2.1775 0.1131
v -0.2956 2.1775 0.0000
v -0.2731 2.1775 -0.1131
v -0.2091 2.1775 -0.2091
v -0.1131 2.1775 -0.2731
v -0.0000 2.1775 -0.2956
v 0.1131 2.1775 -0.2731
v 0.2091 2.1775 -0.2091
v 0.2731 2.1775 -0.1131
v 0.2661 2.1222 0.0000
v 0.2458 2.1222 0.1018
v 0.1881 2.1222 0.1881
v 0.1018 2.1222 0.2458
v 0.0000 2.1222 0.2661
v -0.1018 2.1222 0.2458
v -0.1881 2.1222 0.1881
v -0.2458 2.1222 0.1018
v -0.2661 2.1222 0.0000
v -0.2458 2.1222 -0.1018
v -0.1881 2.1222 -0.1881
v -0.1018 2.1222 -0.2458
v -0.0000 2.1222 -0.2661
v 0.1018 2.1222 -0.2458
v 0.1881 2.1222 -0.1881
v 0.2458 2.1222 -0.1018
v 0.2263 2.0737 0.0000
v 0.2091 2.0737 0.0866
v 0.1600 2.0737 0.1600
v 0.0866 2.0737 0.2091
v 0.0000 2.0737 0.2263
v -0.0866 2.0737 0.2091
v -0.1600 2.0737 0.1600
v -0.2091 2.0737 0.0866
v -0.2263 2.0737 0.0000
v -0.2091 2.0737 -0.0866
v -0.1600 2.0737 -0.1600
v -0.0866 2.0737 -0.2091
v -0.0000 2.0737 -0.2263
v 0.0866 2.0737 -0.2091
v 0.1600 2.0737 -0.1600
v 0.2091 2.0737 -0.0866
v 0.1778 2.0339 0.0000
v 0.1642 2.0339 0.0680
v 0.1257 2.0339 0.1257
v 0.0680 2.0339 0.1642
v 0.0000 2.0339 0.1778
v -0.0680 2.0339 0.1642
v -0.1257 2.0339 0.1257
v -0.1642 2.0339 0.0680
v -0.1778 2.0339 0.0000
v -0.1642 2.0339 -0.0680
v -0.1257 2.0339 -0.1257
v -0.0680 2.0339 -0.1642
v -0.0000 2.0339 -0.1778
v 0.0680 2.0339 -0.1642
v 0.1257 2.0339 -0.1257
v 0.1642 2.0339 -0.0680
v 0.1225 2.0044 0.0000
v 0.1131 2.0044 0.0469
v 0.0866 2.0044 0.0866
v 0.0469 2.0044 0.1131
v 0.0000 2.0044 0.1225
v -0.0469 2.0044 0.1131
v -0.0866 2.0044 0.0866
v -0.1131 2.0044 0.0469
v -0.1225 2.0044 0.0000
v -0.1131 2.0044 -0.0469
v -0.0866 2.0044 -0.0866
v -0.0469 2.0044 -0.1131
v -0.0000 2.0044 -0.1225
v 0.0469 2.0044 -0.1131
v 0.0866 2.0044 -0.0866
v 0.1131 2.0044 -0.0469
v 0.0624 1.9861 0.0000
v 0.0577 1.9861 0.0239
v 0.0441 1.9861 0.0441
v 0.0239 1.9861 0.0577
v 0.0000 1.9861 0.0624
v -0.0239 1.9861 0.0577
v -0.0441 1.9861 0.0441
v -0.0577 1.9861 0.0239
v -0.0624 1.9861 0.0000
v -0.0577 1.9861 -0.0239
v -0.0441 1.9861 -0.0441
v -0.0239 1.9861 -0.0577
v -0.0000 1.9861 -0.0624
v 0.0239 1.9861 -0.0577
v 0.0441 1.9861 -0.0441
v 0.0577 1.9861 -0.0239
v 0.0000 1.9800 0.0000
v 0.0000 1.9800 0.0000
v 0.0000 1.9800 0.0000
v 0.0000 1.9800 0.0000
v 0.0000 1.9800 0.0000
v -0.0000 1.9800 0.0000
v -0.0000 1.9800 0.0000
v -0.0000 1.9800 0.0000
v -0.0000 1.9800 0.0000
v -0.0000 1.9800 -0.0000
v -0.0000 1.9800 -0.0000
v -0.0000 1.9800 -0.0000
v -0.0000 1.9800 -0.0000
v 0.0000 1.9800 -0.0000
v 0.0000 1.9800 -0.0000
v 0.0000 1.9800 -0.0000
v 0.1000 0.8500 0.0000
v 0.0924 0.8500 0.0383
v 0.0707 0.8500 0.0707
v 0.0383 0.8500 0.0924
v 0.0000 0.8500 0.1000
v -0.0383 0.8500 0.0924
v -0.0707 0.8500 0.0707
v -0.0924 0.8500 0.0383
v -0.1000 0.8500 0.0000
v -0.0924 0.8500 -0.0383
v -0.0707 0.8500 -0.0707
v -0.0383 0.8500 -0.0924
v -0.0000 0.8500 -0.1000
v 0.0383 0.8500 -0.0924
v 0.0707 0.8500 -0.0707
v 0.0924 0.8500 -0.0383
v 0.1000 1.9500 0.0000
v 0.0924 1.9500 0.0383
v 0.0707 1.9500 0.0707
v 0.0383 1.9500 0.0924
v 0.0000 1.9500 0.1000
v -0.0383 1.9500 0.0924
v -0.0707 1.9500 0.0707
v -0.0924 1.9500 0.0383
v -0.1000 1.9500 0.0000
v -0.0924 1.9500 -0.0383
v -0.0707 1.9500 -0.0707
v -0.0383 1.9500 -0.0924
v -0.0000 1.9500 -0.1000
v 0.0383 1.9500 -0.0924
v 0.0707 1.9500 -0.0707
v 0.0924 1.9500 -0.0383
v -0.8500 1.7700 0.0000
v -0.8500 1.7647 0.0268
v -0.8500 1.7495 0.0495
v -0.8500 1.7268 0.0647
v -0.8500 1.7000 0.0700
v -0.8500 1.6732 0.0647
v -0.8500 1.6505 0.0495
v -0.8500 1.6353 0.0268
v -0.8500 1.6300 0.0000
v -0.8500 1.6353 -0.0268
v -0.8500 1.6505 -0.0495
v -0.8500 1.6732 -0.0647
v -0.8500 1.7000 -0.0700
v -0.8500 1.7268 -0.0647
v -0.8500 1.7495 -0.0495
v -0.8500 1.7647 -0.0268
v -0.1500 1.7700 0.0000
v -0.1500 1.7647 0.0268
v -0.1500 1.7495 0.0495
v -0.1500 1.7268 0.0647
v -0.1500 1.7000 0.0700
v -0.1500 1.6732 0.0647
v -0.1500 1.6505 0.0495
v -0.1500 1.6353 0.0268
v -0.1500 1.6300 0.0000
v -0.1500 1.6353 -0.0268
v -0.1500 1.6505 -0.0495
v -0.1500 1.6732 -0.0647
v -0.1500 1.7000 -0.0700
v -0.1500 1.7268 -0.0647
v -0.1500 1.7495 -0.0495
v -0.1500 1.7647 -0.0268
v 0.1500 1.7700 0.0000
v 0.1500 1.7647 0.0268
v 0.1500 1.7495 0.0495
v 0.1500 1.7268 0.0647
v 0.1500 1.7000 0.0700
v 0.1500 1.6732 0.0647
v 0.1500 1.6505 0.0495
v 0.1500 1.6353 0.0268
v 0.1500 1.6300 0.0000
v 0.1500 1.6353 -0.0268
v 0.1500 1.6505 -0.0495
v 0.1500 1.6732 -0.0647
v 0.1500 1.7000 -0.0700
v 0.1500 1.7268 -0.0647
v 0.1500 1.7495 -0.0495
v 0.1500 1.7647 -0.0268
v 0.8500 1.7700 0.0000
v 0.8500 1.7647 0.0268
v 0.8500 1.7495 0.0495
v 0.8500 1.7268 0.0647
v 0.8500 1.7000 0.0700
v 0.8500 1.6732 0.0647
v 0.8500 1.6505 0.0495
v 0.8500 1.6353 0.0268
v 0.8500 1.6300 0.0000
v 0.8500 1.6353 -0.0268
v 0.8500 1.6505 -0.0495
v 0.8500 1.6732 -0.0647
v 0.8500 1.7000 -0.0700
v 0.8500 1.7268 -0.0647
v 0.8500 1.7495 -0.0495
v 0.8500 1.7647 -0.0268
v -0.1000 0.0000 0.0000
v -0.1061 0.0000 0.0306
v -0.1234 0.0000 0.0566
v -0.1494 0.0000 0.0739
v -0.1800 0.0000 0.0800
v -0.2106 0.0000 0.0739
v -0.2366 0.0000 0.0566
v -0.2539 0.0000 0.0306
v -0.2600 0.0000 0.0000
v -0.2539 0.0000 -0.0306
v -0.2366 0.0000 -0.0566
v -0.2106 0.0000 -0.0739
v -0.1800 0.0000 -0.0800
v -0.1494 0.0000 -0.0739
v -0.1234 0.0000 -0.0566
v -0.1061 0.0000 -0.0306
v -0.1000 0.9000 0.0000
v -0.1061 0.9000 0.0306
v -0.1234 0.9000 0.0566
v -0.1494 0.9000 0.0739
v -0.1800 0.9000 0.0800
v -0.2106 0.9000 0.0739
v -0.2366 0.9000 0.0566
v -0.2539 0.9000 0.0306
v -0.2600 0.9000 0.0000
v -0.2539 0.9000 -0.0306
v -0.2366 0.9000 -0.0566
v -0.2106 0.9000 -0.0739
v -0.1800 0.9000 -0.0800
v -0.1494 0.9000 -0.0739
v -0.1234 0.9000 -0.0566
v -0.1061 0.9000 -0.0306
v 0.2600 0.0000 0.0000
v 0.2539 0.0000 0.0306
v 0.2366 0.0000 0.0566
v 0.2106 0.0000 0.0739
v 0.1800 0.0000 0.0800
v 0.1494 0.0000 0.0739
v 0.1234 0.0000 0.0566
v 0.1061 0.0000 0.0306
v 0.1000 0.0000 0.0000
v 0.1061 0.0000 -0.0306
v 0.1234 0.0000 -0.0566
v 0.1494 0.0000 -0.0739
v 0.1800 0.0000 -0.0800
v 0.2106 0.0000 -0.0739
v 0.2366 0.0000 -0.0566
v 0.2539 0.0000 -0.0306
v 0.2600 0.9000 0.0000
v 0.2539 0.9000 0.0306
v 0.2366 0.9000 0.0566
v 0.2106 0.9000 0.0739
v 0.1800 0.9000 0.0800
v 0.1494 0.9000 0.0739
v 0.1234 0.9000 0.0566
v 0.1061 0.9000 0.0306
v 0.1000 0.9000 0.0000
v 0.1061 0.9000 -0.0306
v 0.1234 0.9000 -0.0566
v 0.1494 0.9000 -0.0739
v 0.1800 0.9000 -0.0800
v 0.2106 0.9000 -0.0739
v 0.2366 0.9000 -0.0566
v 0.2539 0.9000 -0.0306
usemtl Putih
f 1 2 18 17
f 2 3 19 18
f 3 4 20 19
f 4 5 21 20
f 5 6 22 21
f 6 7 23 22
f 7 8 24 23
f 8 9 25 24
f 9 10 26 25
f 10 11 27 26
f 11 12 28 27
f 12 13 29 28
f 13 14 30 29
f 14 15 31 30
f 15 16 32 31
f 16 1 17 32
f 17 18 34 33
f 18 19 35 34
f 19 20 36 35
f 20 21 37 36
f 21 22 38 37
f 22 23 39 38
f 23 24 40 39
f 24 25 41 40
f 25 26 42 41
f 26 27 43 42
f 27 28 44 43
f 28 29 45 44
f 29 30 46 45
f 30 31 47 46
f 31 32 48 47
f 32 17 33 48
f 33 34 50 49
f 34 35 51 50
f 35 36 52 51
f 36 37 53 52
f 37 38 54 53
f 38 39 55 54
f 39 40 56 55
f 40 41 57 56
f 41 42 58 57
f 42 43 59 58
f 43 44 60 59
f 44 45 61 60
f 45 46 62 61
f 46 47 63 62
f 47 48 64 63
f 48 33 49 64
f 49 50 66 65
f 50 51 67 66
f 51 52 68 67
f 52 53 69 68
f 53 54 70 69
f 54 55 71 70
f 55 56 72 71
f 56 57 73 72
f 57 58 74 73
f 58 59 75 74
f 59 60 76 75
f 60 61 77 76
f 61 62 78 77
f 62 63 79 78
f 63 64 80 79
f 64 49 65 80
f 65 66 82 81
f 66 67 83 82
f 67 68 84 83
f 68 69 85 84
f 69 70 86 85
f 70 71 87 86
f 71 72 88 87
f 72 73 89 88
f 73 74 90 89
f 74 75 91 90
f 75 76 92 91
f 76 77 93 92
f 77 78 94 93
f 78 79 95 94
f 79 80 96 95
f 80 65 81 96
f 81 82 98 97
f 82 83 99 98
f 83 84 100 99
f 84 85 101 100
f 85 86 102 101
f 86 87 103 102
f 87 88 104 103
f 88 89 105 104
f 89 90 106 105
f 90 91 107 106
f 91 92 108 107
f 92 93 109 108
f 93 94 110 109
f 94 95 111 110
f 95 96 112 111
f 96 81 97 112
f 97 98 114 113
f 98 99 115 114
f 99 100 116 115
f 100 101 117 116
f 101 102 118 117
f 102 103 119 118
f 103 104 120 119
f 104 105 121 120
f 105 106 122 121
f 106 107 123 122
f 107 108 124 123
f 108 109 125 124
f 109 110 126 125
f 110 111 127 126
f 111 112 128 127
f 112 97 113 128
f 113 114 130 129
f 114 115 131 130
f 115 116 132 131
f 116 117 133 132
f 117 118 134 133
f 118 119 135 134
f 119 120 136 135
f 120 121 137 136
f 121 122 138 137
f 122 123 139 138
f 123 124 140 139
f 124 125 141 140
f 125 126 142 141
f 126 127 143 142
f 127 128 144 143
f 128 113 129 144
f 129 130 146 145
f 130 131 147 146
f 131 132 148 147
f 132 133 149 148
f 133 134 150 149
f 134 135 151 150
f 135 136 152 151
f 136 137 153 152
f 137 138 154 153
f 138 139 155 154
f 139 140 156 155
f 140 141 157 156
f 141 142 158 157
f 142 143 159 158
f 143 144 160 159
f 144 129 145 160
f 145 146 162 161
f 146 147 163 162
f 147 148 164 163
f 148 149 165 164
f 149 150 166 165
f 150 151 167 166
f 151 152 168 167
f 152 153 169 168
f 153 154 170 169
f 154 155 171 170
f 155 156 172 171
f 156 157 173 172
f 157 158 174 173
f 158 159 175 174
f 159 160 176 175
f 160 145 161 176
f 161 162 178 177
f 162 163 179 178
f 163 164 180 179
f 164 165 181 180
f 165 166 182 181
f 166 167 183 182
f 167 168 184 183
f 168 169 185 184
f 169 170 186 185
f 170 171 187 186
f 171 172 188 187
f 172 173 189 188
f 173 174 190 189
f 174 175 191 190
f 175 176 192 191
f 176 161 177 192
f 177 178 194 193
f 178 179 195 194
f 179 180 196 195
f 180 181 197 196
f 181 182 198 197
f 182 183 199 198
f 183 184 200 199
f 184 185 201 200
f 185 186 202 201
f 186 187 203 202
f 187 188 204 203
f 188 189 205 204
f 189 190 206 205
f 190 191 207 206
f 191 192 208 207
f 192 177 193 208
f 193 194 210 209
f 194 195 211 210
f 195 196 212 211
f 196 197 213 212
f 197 198 214 213
f 198 199 215 214
f 199 200 216 215
f 200 201 217 216
f 201 202 218 217
f 202 203 219 218
f 203 204 220 219
f 204 205 221 220
f 205 206 222 221
f 206 207 223 222
f 207 208 224 223
f 208 193 209 224
f 209 210 226 225
f 210 211 227 226
f 211 212 228 227
f 212 213 229 228
f 213 214 230 229
f 214 215 231 230
f 215 216 232 231
f 216 217 233 232
f 217 218 234 233
f 218 219 235 234
f 219 220 236 235
f 220 221 237 236
f 221 222 238 237
f 222 223 239 238
f 223 224 240 239
f 224 209 225 240
f 225 226 242 241
f 226 227 243 242
f 227 228 244 243
f 228 229 245 244
f 229 230 246 245
f 230 231 247 246
f 231 232 248 247
f 232 233 249 248
f 233 234 250 249
f 234 235 251 250
f 235 236 252 251
f 236 237 253 252
f 237 238 254 253
f 238 239 255 254
f 239 240 256 255
f 240 225 241 256
f 241 242 258 257
f 242 243 259 258
f 243 244 260 259
f 244 245 261 260
f 245 246 262 261
f 246 247 263 262
f 247 248 264 263
f 248 249 265 264
f 249 250 266 265
f 250 251 267 266
f 251 252 268 267
f 252 253 269 268
f 253 254 270 269
f 254 255 271 270
f 255 256 272 271
f 256 241 257 272
usemtl Hitam
f 273 274 290 289
f 274 275 291 290
f 275 276 292 291
f 276 277 293 292
f 277 278 294 293
f 278 279 295 294
f 279 280 296 295
f 280 281 297 296
f 281 282 298 297
f 282 283 299 298
f 283 284 300 299
f 284 285 301 300
f 285 286 302 301
f 286 287 303 302
f 287 288 304 303
f 288 273 289 304
f 288 287 286 285 284 283 282 281 280 279 278 277 276 275 274 273
f 289 290 291 292 293 294 295 296 297 298 299 300 301 302 303 304
f 305 306 322 321
f 306 307 323 322
f 307 308 324 323
f 308 309 325 324
f 309 310 326 325
f 310 311 327 326
f 311 312 328 327
f 312 313 329 328
f 313 314 330 329
f 314 315 331 330
f 315 316 332 331
f 316 317 333 332
f 317 318 334 333
f 318 319 335 334
f 319 320 336 335
f 320 305 321 336
f 320 319 318 317 316 315 314 313 312 311 310 309 308 307 306 305
f 321 322 323 324 325 326 327 328 329 330 331 332 333 334 335 336
f 337 338 354 353
f 338 339 355 354
f 339 340 356 355
f 340 341 357 356
f 341 342 358 357
f 342 343 359 358
f 343 344 360 359
f 344 345 361 360
f 345 346 362 361
f 346 347 363 362
f 347 348 364 363
f 348 349 365 364
f 349 350 366 365
f 350 351 367 366
f 351 352 368 367
f 352 337 353 368
f 352 351 350 349 348 347 346 345 344 343 342 341 340 339 338 337
f 353 354 355 356 357 358 359 360 361 362 363 364 365 366 367 368
f 369 370 386 385
f 370 371 387 386
f 371 372 388 387
f 372 373 389 388
f 373 374 390 389
f 374 375 391 390
f 375 376 392 391
f 376 377 393 392
f 377 378 394 393
f 378 379 395 394
f 379 380 396 395
f 380 381 397 396
f 381 382 398 397
f 382 383 399 398
f 383 384 400 399
f 384 369 385 400
f 384 383 382 381 380 379 378 377 376 375 374 373 372 371 370 369
f 385 386 387 388 389 390 391 392 393 394 395 396 397 398 399 400
f 401 402 418 417
f 402 403 419 418
f 403 404 420 419
f 404 405 421 420
f 405 406 422 421
f 406 407 423 422
f 407 408 424 423
f 408 409 425 424
f 409 410 426 425
f 410 411 427 426
f 411 412 428 427
f 412 413 429 428
f 413 414 430 429
f 414 415 431 430
f 415 416 432 431
f 416 401 417 432
f 416 415 414 413 412 411 410 409 408 407 406 405 404 403 402 401
f 417 418 419 420 421 422 423 424 425 426 427 428 429 430 431 432
